<svg xmlns="http://www.w3.org/2000/svg" viewBox="0 0 600 120" width="600" height="120" role="img" aria-label="waveform motif">
  <g fill="#E8E1D4">
    
    <rect x="0" y="54" width="2" height="12"></rect>
    <rect x="6" y="48" width="2" height="24"></rect>
    <rect x="12" y="42" width="2" height="36"></rect>
    <rect x="18" y="36" width="2" height="48"></rect>
    <rect x="24" y="30" width="2" height="60"></rect>
    <rect x="30" y="24" width="2" height="72"></rect>
    <rect x="36" y="18" width="2" height="84"></rect>
    <rect x="42" y="14" width="2" height="92"></rect>
    <rect x="48" y="20" width="2" height="80"></rect>
    <rect x="54" y="30" width="2" height="60"></rect>
    <rect x="60" y="40" width="2" height="40"></rect>
    <rect x="66" y="48" width="2" height="24"></rect>
    <rect x="72" y="40" width="2" height="40"></rect>
    <rect x="78" y="28" width="2" height="64"></rect>
    <rect x="84" y="16" width="2" height="88"></rect>
    <rect x="90" y="8" width="2" height="104"></rect>
    <rect x="96" y="14" width="2" height="92"></rect>
    <rect x="102" y="22" width="2" height="76"></rect>
    <rect x="108" y="30" width="2" height="60"></rect>
    <rect x="114" y="38" width="2" height="44"></rect>
    <rect x="120" y="46" width="2" height="28"></rect>
    <rect x="126" y="40" width="2" height="40"></rect>
    <rect x="132" y="30" width="2" height="60"></rect>
    <rect x="138" y="20" width="2" height="80"></rect>
    <rect x="144" y="12" width="2" height="96"></rect>
    <rect x="150" y="4" width="2" height="112"></rect>
    <rect x="156" y="12" width="2" height="96"></rect>
    <rect x="162" y="22" width="2" height="76"></rect>
    <rect x="168" y="30" width="2" height="60"></rect>
    <rect x="174" y="38" width="2" height="44"></rect>
    <rect x="180" y="44" width="2" height="32"></rect>
    <rect x="186" y="50" width="2" height="20"></rect>
    <rect x="192" y="48" width="2" height="24"></rect>
    <rect x="198" y="42" width="2" height="36"></rect>
    <rect x="204" y="34" width="2" height="52"></rect>
    <rect x="210" y="26" width="2" height="68"></rect>
    <rect x="216" y="20" width="2" height="80"></rect>
    <rect x="222" y="14" width="2" height="92"></rect>
    <rect x="228" y="10" width="2" height="100"></rect>
    <rect x="234" y="16" width="2" height="88"></rect>
    <rect x="240" y="26" width="2" height="68"></rect>
    <rect x="246" y="36" width="2" height="48"></rect>
    <rect x="252" y="44" width="2" height="32"></rect>
    <rect x="258" y="40" width="2" height="40"></rect>
    <rect x="264" y="32" width="2" height="56"></rect>
    <rect x="270" y="24" width="2" height="72"></rect>
    <rect x="276" y="18" width="2" height="84"></rect>
    <rect x="282" y="22" width="2" height="76"></rect>
    <rect x="288" y="30" width="2" height="60"></rect>
    <rect x="294" y="40" width="2" height="40"></rect>
  </g>
  <g fill="#E8863A">
    <rect x="300" y="10" width="2" height="100"></rect>
    <rect x="306" y="18" width="2" height="84"></rect>
    <rect x="312" y="30" width="2" height="60"></rect>
  </g>
  <g fill="#E8E1D4">
    <rect x="318" y="40" width="2" height="40"></rect>
    <rect x="324" y="30" width="2" height="60"></rect>
    <rect x="330" y="20" width="2" height="80"></rect>
    <rect x="336" y="14" width="2" height="92"></rect>
    <rect x="342" y="20" width="2" height="80"></rect>
    <rect x="348" y="28" width="2" height="64"></rect>
    <rect x="354" y="38" width="2" height="44"></rect>
    <rect x="360" y="46" width="2" height="28"></rect>
    <rect x="366" y="42" width="2" height="36"></rect>
    <rect x="372" y="34" width="2" height="52"></rect>
    <rect x="378" y="26" width="2" height="68"></rect>
    <rect x="384" y="18" width="2" height="84"></rect>
    <rect x="390" y="24" width="2" height="72"></rect>
    <rect x="396" y="32" width="2" height="56"></rect>
    <rect x="402" y="40" width="2" height="40"></rect>
    <rect x="408" y="48" width="2" height="24"></rect>
    <rect x="414" y="44" width="2" height="32"></rect>
    <rect x="420" y="38" width="2" height="44"></rect>
    <rect x="426" y="30" width="2" height="60"></rect>
    <rect x="432" y="22" width="2" height="76"></rect>
    <rect x="438" y="16" width="2" height="88"></rect>
    <rect x="444" y="22" width="2" height="76"></rect>
    <rect x="450" y="30" width="2" height="60"></rect>
    <rect x="456" y="38" width="2" height="44"></rect>
    <rect x="462" y="46" width="2" height="28"></rect>
    <rect x="468" y="50" width="2" height="20"></rect>
    <rect x="474" y="48" width="2" height="24"></rect>
    <rect x="480" y="42" width="2" height="36"></rect>
    <rect x="486" y="36" width="2" height="48"></rect>
    <rect x="492" y="30" width="2" height="60"></rect>
    <rect x="498" y="36" width="2" height="48"></rect>
    <rect x="504" y="42" width="2" height="36"></rect>
    <rect x="510" y="48" width="2" height="24"></rect>
    <rect x="516" y="52" width="2" height="16"></rect>
    <rect x="522" y="48" width="2" height="24"></rect>
    <rect x="528" y="44" width="2" height="32"></rect>
    <rect x="534" y="40" width="2" height="40"></rect>
    <rect x="540" y="46" width="2" height="28"></rect>
    <rect x="546" y="50" width="2" height="20"></rect>
    <rect x="552" y="54" width="2" height="12"></rect>
    <rect x="558" y="52" width="2" height="16"></rect>
    <rect x="564" y="50" width="2" height="20"></rect>
    <rect x="570" y="54" width="2" height="12"></rect>
    <rect x="576" y="56" width="2" height="8"></rect>
    <rect x="582" y="58" width="2" height="4"></rect>
    <rect x="588" y="56" width="2" height="8"></rect>
    <rect x="594" y="58" width="2" height="4"></rect>
  </g>
</svg>